<?xml version="1.0" encoding="UTF-8"?>
<svg width="20px" height="20px" viewBox="0 0 20 20" version="1.1" xmlns="http://www.w3.org/2000/svg" xmlns:xlink="http://www.w3.org/1999/xlink">
    <title>icon-20/table-jiantou备份 5</title>
    <g id="icon-20/table-jiantou备份-5" stroke="none" stroke-width="1" fill="none" fill-rule="evenodd">
        <path d="M10,2.25 C5.71979319,2.25 2.25,5.71979319 2.25,10 C2.25,14.2802068 5.71979319,17.75 10,17.75 C14.2802068,17.75 17.75,14.2802068 17.75,10 C17.75,5.71979319 14.2802068,2.25 10,2.25 Z M10,3.75 C13.4517797,3.75 16.25,6.54822031 16.25,10 C16.25,13.4517797 13.4517797,16.25 10,16.25 C6.54822031,16.25 3.75,13.4517797 3.75,10 C3.75,6.54822031 6.54822031,3.75 10,3.75 Z" id="矩形" fill="#176DE6" fill-rule="nonzero"></path>
        <path d="M6.73152599,8.46966991 C6.99779256,8.20340335 7.41445624,8.1791973 7.70806773,8.39705176 L7.79218616,8.46966991 L10,10.677 L12.2078138,8.46966991 C12.4740804,8.20340335 12.8907441,8.1791973 13.1843556,8.39705176 L13.268474,8.46966991 C13.5347406,8.73593648 13.5589466,9.15260016 13.3410922,9.44621165 L13.268474,9.53033009 L10.5303301,12.268474 C10.2640635,12.5347406 9.84739984,12.5589466 9.55378835,12.3410922 L9.46966991,12.268474 L6.73152599,9.53033009 C6.43863277,9.23743687 6.43863277,8.76256313 6.73152599,8.46966991 Z" id="路径-2" fill="#176DE6" fill-rule="nonzero"></path>
    </g>
</svg>